<svg xmlns="http://www.w3.org/2000/svg" viewBox="0 0 18 18">
  <defs>
    <style>
      .cls-1, .cls-4 {
        fill: none;
      }

      .cls-2 {
        fill: #09ffff;
      }

      .cls-2, .cls-3, .cls-4 {
        stroke: #0d76be;
        stroke-linecap: round;
        stroke-linejoin: round;
      }

      .cls-3 {
        fill: #119cff;
      }
    </style>
  </defs>
  <title>ic_chart_18</title>
  <g id="Ebene_2" data-name="Ebene 2">
    <g id="artwork">
      <rect class="cls-1" width="18" height="18"/>
      <path class="cls-2" d="M8,5.5h2a.5.5,0,0,1,.5.5v8.5a0,0,0,0,1,0,0h-3a0,0,0,0,1,0,0V6A.5.5,0,0,1,8,5.5Z"/>
      <path class="cls-3" d="M15,2.5H13a.5.5,0,0,0-.5.5V14.5h3V3A.5.5,0,0,0,15,2.5Z"/>
      <path class="cls-3" d="M5,8.5H3a.5.5,0,0,0-.5.5v5.5h3V9A.5.5,0,0,0,5,8.5Z"/>
      <line class="cls-4" x1="16" y1="16.5" x2="2" y2="16.5"/>
    </g>
  </g>
</svg>
